<svg xmlns="http://www.w3.org/2000/svg" viewBox="0 0 256 256" width="256" height="256" preserveAspectRatio="xMidYMid meet" style="background-color:transparent">
  <defs>
    <path id="grok-bolt-shape-base" d="M144 158h18l-18 18h14l-40 40h-20l18-18h-14z"/>
  </defs>

  <g id="shadow-js" opacity="0.22">
    <ellipse id="shadow-pulse-js" cx="128" cy="241" rx="48" ry="6" fill="#111217"/>
  </g>

  <g id="pointer-body-js" shape-rendering="crispEdges">
    <g id="float-js">
      <g id="body-js">
        <path d="M80 152h96v4h12v8h8v40h-8v8h-12v8h-16v8H96v-8H80v-8H68v-8h-8v-40h8v-8h12z" fill="#090a0c"/>
        <path d="M80 160h96v4h8v8h4v28h-8v8h-12v4h-16v8h-48v-8H88v-4H76v-8h-8v-28h4v-8h8z" fill="#1b1c20"/>
        <path d="M76 168h16v8h-8v20h8v8H76v-8h-8v-20h8zM164 168h16v8h8v20h-8v8h-16v-8h8v-20h-8z" fill="#28292e" opacity="0.68"/>
        <path d="M88 208h16v8h48v-8h16v8h-16v8h-48v-8H88z" fill="#25262b" opacity="0.68"/>
        <path d="M88 216h24v12H88zM144 216h24v12h-24z" fill="#08090b"/>
        <path d="M92 216h16v8H92zM148 216h16v8h-16z" fill="#d9d9d9"/>
        <path d="M92 216h16v4H92zM148 216h16v4h-16z" fill="#ffffff" opacity="0.72"/>
      </g>

      <g id="arms-js">
        <path d="M60 164h12v8h4v28h-4v8H60v-8h-8v-28h8z" fill="#090a0c"/>
        <path d="M56 176h12v8h4v16h-4v8H56v-8h-8v-16h8z" fill="#f4f4f4"/>
        <path d="M52 184h12v16H52zM56 200h8v8h-8z" fill="#d5d5d5"/>
        <path d="M196 164h-12v8h-4v28h4v8h12v-8h8v-28h-8z" fill="#090a0c"/>
        <path d="M200 176h-12v8h-4v16h4v8h12v-8h8v-16h-8z" fill="#f4f4f4"/>
        <path d="M192 184h12v16h-12zM192 200h8v8h-8z" fill="#d5d5d5"/>
      </g>

      <g id="head-js">
        <path d="M84 100h88v4h8v8h8v12h4v28h-4v8h-8v4h-8v4H84v-4h-8v-4h-8v-8h-4v-28h4v-12h8v-8h8z" fill="#08090b"/>
        <path d="M88 104h80v4h8v8h8v12h4v24h-4v8h-8v4h-8v4H88v-4h-8v-4h-8v-8h-4v-24h4v-12h8v-8h8z" fill="#f6f6f6"/>
        <path d="M92 108h72v4h8v8h8v12h4v24h-4v8h-8v4h-8v4H92v-4h-8v-4h-8v-8h-4v-24h4v-12h8v-8h8z" fill="#d8d8d8" opacity="0.62"/>
        <path d="M92 112h72v4h8v8h8v12h4v20h-4v8h-8v4H92v-4h-8v-8h-4v-20h4v-12h8z" fill="#0b0c0e"/>
        <path d="M92 112h72v4h8v8h8v8h-8v-8h-8v-4H96v4h-8v8h-8v-8h4v-12h8z" fill="#ffffff" opacity="0.34"/>
        <path d="M68 124h8v-8h8v44h-8v-8h-8zM180 124h8v-8h8v44h-8v-8h-8z" fill="#08090b"/>
        <path d="M68 132h8v24h-8zM180 132h8v24h-8z" fill="#f4f4f4"/>
        <path d="M68 136h4v20h-4zM184 136h4v20h-4z" fill="#d4d4d4"/>
        <path id="mouth-js" d="M120 150h16v5h-16z" fill="#f6f6f6"/>
      </g>

      <g id="eyes-js" fill="#f8f8f8">
        <g id="blink-js">
          <rect x="96" y="130" width="12" height="18"/>
          <rect x="148" y="130" width="12" height="18"/>
        </g>
      </g>

      <g id="accessory-js">
        <use id="bolt-js" href="#grok-bolt-shape-base" fill="#eeeeee"/>
      </g>

      <g id="effect-js">
        <path d="M116 28h8v6h6v8h-6v6h-8v-6h-6v-8h6z" fill="#f8f8f8"/>
        <path d="M156 46h8v6h6v8h-6v6h-8v-6h-6v-8h6z" fill="#23bff0"/>
        <path d="M124 68h8v6h6v8h-6v6h-8v-6h-6v-8h6z" fill="#ffe56a"/>
      </g>
    </g>
  </g>
</svg>
